<?xml version="1.0" encoding="utf-8" standalone="no"?>
<!DOCTYPE svg PUBLIC "-//W3C//DTD SVG 1.1//EN"
  "http://www.w3.org/Graphics/SVG/1.1/DTD/svg11.dtd">
<svg xmlns:xlink="http://www.w3.org/1999/xlink" width="460.8pt" height="302.4pt" viewBox="0 0 460.8 302.4" xmlns="http://www.w3.org/2000/svg" version="1.1">
 <metadata>
  <rdf:RDF xmlns:dc="http://purl.org/dc/elements/1.1/" xmlns:cc="http://creativecommons.org/ns#" xmlns:rdf="http://www.w3.org/1999/02/22-rdf-syntax-ns#">
   <cc:Work>
    <dc:type rdf:resource="http://purl.org/dc/dcmitype/StillImage"/>
    <dc:date>2026-09-27T19:46:21.850945</dc:date>
    <dc:format>image/svg+xml</dc:format>
    <dc:creator>
     <cc:Agent>
      <dc:title>Matplotlib v3.10.0, https://matplotlib.org/</dc:title>
     </cc:Agent>
    </dc:creator>
   </cc:Work>
  </rdf:RDF>
 </metadata>
 <defs>
  <style type="text/css">*{stroke-linejoin: round; stroke-linecap: butt}</style>
 </defs>
 <g id="figure_1">
  <g id="patch_1">
   <path d="M 0 302.4 
L 460.8 302.4 
L 460.8 0 
L 0 0 
z
" style="fill: #fcfcfb"/>
  </g>
  <g id="axes_1">
   <g id="patch_2">
    <path d="M 46.65 265.38 
L 450 265.38 
L 450 10.8 
L 46.65 10.8 
z
" style="fill: #fcfcfb"/>
   </g>
   <g id="matplotlib.axis_1">
    <g id="xtick_1">
     <g id="line2d_1"/>
     <g id="text_1">
      <text style="font-size: 10px; font-family: 'Segoe UI', 'Arial', 'DejaVu Sans'; text-anchor: middle; fill: #52514e" x="79.260637" y="276.283125" transform="rotate(-0 79.260637 276.283125)">1</text>
     </g>
    </g>
    <g id="xtick_2">
     <g id="line2d_2"/>
     <g id="text_2">
      <text style="font-size: 10px; font-family: 'Segoe UI', 'Arial', 'DejaVu Sans'; text-anchor: middle; fill: #52514e" x="116.830496" y="276.283125" transform="rotate(-0 116.830496 276.283125)">2</text>
     </g>
    </g>
    <g id="xtick_3">
     <g id="line2d_3"/>
     <g id="text_3">
      <text style="font-size: 10px; font-family: 'Segoe UI', 'Arial', 'DejaVu Sans'; text-anchor: middle; fill: #52514e" x="154.400354" y="276.283125" transform="rotate(-0 154.400354 276.283125)">3</text>
     </g>
    </g>
    <g id="xtick_4">
     <g id="line2d_4"/>
     <g id="text_4">
      <text style="font-size: 10px; font-family: 'Segoe UI', 'Arial', 'DejaVu Sans'; text-anchor: middle; fill: #52514e" x="191.970212" y="276.283125" transform="rotate(-0 191.970212 276.283125)">4</text>
     </g>
    </g>
    <g id="xtick_5">
     <g id="line2d_5"/>
     <g id="text_5">
      <text style="font-size: 10px; font-family: 'Segoe UI', 'Arial', 'DejaVu Sans'; text-anchor: middle; fill: #52514e" x="229.540071" y="276.283125" transform="rotate(-0 229.540071 276.283125)">5</text>
     </g>
    </g>
    <g id="xtick_6">
     <g id="line2d_6"/>
     <g id="text_6">
      <text style="font-size: 10px; font-family: 'Segoe UI', 'Arial', 'DejaVu Sans'; text-anchor: middle; fill: #52514e" x="267.109929" y="276.283125" transform="rotate(-0 267.109929 276.283125)">6</text>
     </g>
    </g>
    <g id="xtick_7">
     <g id="line2d_7"/>
     <g id="text_7">
      <text style="font-size: 10px; font-family: 'Segoe UI', 'Arial', 'DejaVu Sans'; text-anchor: middle; fill: #52514e" x="304.679788" y="276.283125" transform="rotate(-0 304.679788 276.283125)">7</text>
     </g>
    </g>
    <g id="xtick_8">
     <g id="line2d_8"/>
     <g id="text_8">
      <text style="font-size: 10px; font-family: 'Segoe UI', 'Arial', 'DejaVu Sans'; text-anchor: middle; fill: #52514e" x="342.249646" y="276.283125" transform="rotate(-0 342.249646 276.283125)">8</text>
     </g>
    </g>
    <g id="xtick_9">
     <g id="line2d_9"/>
     <g id="text_9">
      <text style="font-size: 10px; font-family: 'Segoe UI', 'Arial', 'DejaVu Sans'; text-anchor: middle; fill: #52514e" x="379.819504" y="276.283125" transform="rotate(-0 379.819504 276.283125)">9</text>
     </g>
    </g>
    <g id="xtick_10">
     <g id="line2d_10"/>
     <g id="text_10">
      <text style="font-size: 10px; font-family: 'Segoe UI', 'Arial', 'DejaVu Sans'; text-anchor: middle; fill: #52514e" x="417.389363" y="276.283125" transform="rotate(-0 417.389363 276.283125)">10</text>
     </g>
    </g>
    <g id="text_11">
     <text style="font-size: 10px; font-family: 'Segoe UI', 'Arial', 'DejaVu Sans'; text-anchor: middle; fill: #52514e" x="248.325" y="289.98625" transform="rotate(-0 248.325 289.98625)">PD decile (1 = lowest risk)</text>
    </g>
   </g>
   <g id="matplotlib.axis_2">
    <g id="ytick_1">
     <g id="line2d_11">
      <path d="M 46.65 265.38 
L 450 265.38 
" clip-path="url(#p886b6e3a15)" style="fill: none; stroke: #e1e0d9; stroke-width: 0.8; stroke-linecap: square"/>
     </g>
     <g id="line2d_12"/>
     <g id="text_12">
      <text style="font-size: 10px; font-family: 'Segoe UI', 'Arial', 'DejaVu Sans'; text-anchor: end; fill: #52514e" x="43.15" y="269.081563" transform="rotate(-0 43.15 269.081563)">0%</text>
     </g>
    </g>
    <g id="ytick_2">
     <g id="line2d_13">
      <path d="M 46.65 239.003816 
L 450 239.003816 
" clip-path="url(#p886b6e3a15)" style="fill: none; stroke: #e1e0d9; stroke-width: 0.8; stroke-linecap: square"/>
     </g>
     <g id="line2d_14"/>
     <g id="text_13">
      <text style="font-size: 10px; font-family: 'Segoe UI', 'Arial', 'DejaVu Sans'; text-anchor: end; fill: #52514e" x="43.15" y="242.705378" transform="rotate(-0 43.15 242.705378)">2%</text>
     </g>
    </g>
    <g id="ytick_3">
     <g id="line2d_15">
      <path d="M 46.65 212.627632 
L 450 212.627632 
" clip-path="url(#p886b6e3a15)" style="fill: none; stroke: #e1e0d9; stroke-width: 0.8; stroke-linecap: square"/>
     </g>
     <g id="line2d_16"/>
     <g id="text_14">
      <text style="font-size: 10px; font-family: 'Segoe UI', 'Arial', 'DejaVu Sans'; text-anchor: end; fill: #52514e" x="43.15" y="216.329194" transform="rotate(-0 43.15 216.329194)">4%</text>
     </g>
    </g>
    <g id="ytick_4">
     <g id="line2d_17">
      <path d="M 46.65 186.251448 
L 450 186.251448 
" clip-path="url(#p886b6e3a15)" style="fill: none; stroke: #e1e0d9; stroke-width: 0.8; stroke-linecap: square"/>
     </g>
     <g id="line2d_18"/>
     <g id="text_15">
      <text style="font-size: 10px; font-family: 'Segoe UI', 'Arial', 'DejaVu Sans'; text-anchor: end; fill: #52514e" x="43.15" y="189.95301" transform="rotate(-0 43.15 189.95301)">6%</text>
     </g>
    </g>
    <g id="ytick_5">
     <g id="line2d_19">
      <path d="M 46.65 159.875264 
L 450 159.875264 
" clip-path="url(#p886b6e3a15)" style="fill: none; stroke: #e1e0d9; stroke-width: 0.8; stroke-linecap: square"/>
     </g>
     <g id="line2d_20"/>
     <g id="text_16">
      <text style="font-size: 10px; font-family: 'Segoe UI', 'Arial', 'DejaVu Sans'; text-anchor: end; fill: #52514e" x="43.15" y="163.576826" transform="rotate(-0 43.15 163.576826)">8%</text>
     </g>
    </g>
    <g id="ytick_6">
     <g id="line2d_21">
      <path d="M 46.65 133.49908 
L 450 133.49908 
" clip-path="url(#p886b6e3a15)" style="fill: none; stroke: #e1e0d9; stroke-width: 0.8; stroke-linecap: square"/>
     </g>
     <g id="line2d_22"/>
     <g id="text_17">
      <text style="font-size: 10px; font-family: 'Segoe UI', 'Arial', 'DejaVu Sans'; text-anchor: end; fill: #52514e" x="43.15" y="137.200642" transform="rotate(-0 43.15 137.200642)">10%</text>
     </g>
    </g>
    <g id="ytick_7">
     <g id="line2d_23">
      <path d="M 46.65 107.122896 
L 450 107.122896 
" clip-path="url(#p886b6e3a15)" style="fill: none; stroke: #e1e0d9; stroke-width: 0.8; stroke-linecap: square"/>
     </g>
     <g id="line2d_24"/>
     <g id="text_18">
      <text style="font-size: 10px; font-family: 'Segoe UI', 'Arial', 'DejaVu Sans'; text-anchor: end; fill: #52514e" x="43.15" y="110.824458" transform="rotate(-0 43.15 110.824458)">12%</text>
     </g>
    </g>
    <g id="ytick_8">
     <g id="line2d_25">
      <path d="M 46.65 80.746712 
L 450 80.746712 
" clip-path="url(#p886b6e3a15)" style="fill: none; stroke: #e1e0d9; stroke-width: 0.8; stroke-linecap: square"/>
     </g>
     <g id="line2d_26"/>
     <g id="text_19">
      <text style="font-size: 10px; font-family: 'Segoe UI', 'Arial', 'DejaVu Sans'; text-anchor: end; fill: #52514e" x="43.15" y="84.448274" transform="rotate(-0 43.15 84.448274)">14%</text>
     </g>
    </g>
    <g id="ytick_9">
     <g id="line2d_27">
      <path d="M 46.65 54.370528 
L 450 54.370528 
" clip-path="url(#p886b6e3a15)" style="fill: none; stroke: #e1e0d9; stroke-width: 0.8; stroke-linecap: square"/>
     </g>
     <g id="line2d_28"/>
     <g id="text_20">
      <text style="font-size: 10px; font-family: 'Segoe UI', 'Arial', 'DejaVu Sans'; text-anchor: end; fill: #52514e" x="43.15" y="58.07209" transform="rotate(-0 43.15 58.07209)">16%</text>
     </g>
    </g>
    <g id="ytick_10">
     <g id="line2d_29">
      <path d="M 46.65 27.994344 
L 450 27.994344 
" clip-path="url(#p886b6e3a15)" style="fill: none; stroke: #e1e0d9; stroke-width: 0.8; stroke-linecap: square"/>
     </g>
     <g id="line2d_30"/>
     <g id="text_21">
      <text style="font-size: 10px; font-family: 'Segoe UI', 'Arial', 'DejaVu Sans'; text-anchor: end; fill: #52514e" x="43.15" y="31.695906" transform="rotate(-0 43.15 31.695906)">18%</text>
     </g>
    </g>
    <g id="text_22">
     <text style="font-size: 10px; font-family: 'Segoe UI', 'Arial', 'DejaVu Sans'; text-anchor: middle; fill: #52514e" x="17.884375" y="138.09" transform="rotate(-90 17.884375 138.09)">Loss as % of funded amount</text>
    </g>
   </g>
   <g id="patch_3">
    <path d="M 64.984091 265.38 
L 79.260637 265.38 
L 79.260637 241.127736 
L 64.984091 241.127736 
z
" clip-path="url(#p886b6e3a15)" style="fill: #1c5cab"/>
   </g>
   <g id="patch_4">
    <path d="M 102.553949 265.38 
L 116.830496 265.38 
L 116.830496 231.673277 
L 102.553949 231.673277 
z
" clip-path="url(#p886b6e3a15)" style="fill: #1c5cab"/>
   </g>
   <g id="patch_5">
    <path d="M 140.123808 265.38 
L 154.400354 265.38 
L 154.400354 221.134166 
L 140.123808 221.134166 
z
" clip-path="url(#p886b6e3a15)" style="fill: #1c5cab"/>
   </g>
   <g id="patch_6">
    <path d="M 177.693666 265.38 
L 191.970212 265.38 
L 191.970212 210.377446 
L 177.693666 210.377446 
z
" clip-path="url(#p886b6e3a15)" style="fill: #1c5cab"/>
   </g>
   <g id="patch_7">
    <path d="M 215.263525 265.38 
L 229.540071 265.38 
L 229.540071 198.777462 
L 215.263525 198.777462 
z
" clip-path="url(#p886b6e3a15)" style="fill: #1c5cab"/>
   </g>
   <g id="patch_8">
    <path d="M 252.833383 265.38 
L 267.109929 265.38 
L 267.109929 185.124962 
L 252.833383 185.124962 
z
" clip-path="url(#p886b6e3a15)" style="fill: #1c5cab"/>
   </g>
   <g id="patch_9">
    <path d="M 290.403241 265.38 
L 304.679788 265.38 
L 304.679788 168.367703 
L 290.403241 168.367703 
z
" clip-path="url(#p886b6e3a15)" style="fill: #1c5cab"/>
   </g>
   <g id="patch_10">
    <path d="M 327.9731 265.38 
L 342.249646 265.38 
L 342.249646 147.104737 
L 327.9731 147.104737 
z
" clip-path="url(#p886b6e3a15)" style="fill: #1c5cab"/>
   </g>
   <g id="patch_11">
    <path d="M 365.542958 265.38 
L 379.819504 265.38 
L 379.819504 119.047903 
L 365.542958 119.047903 
z
" clip-path="url(#p886b6e3a15)" style="fill: #1c5cab"/>
   </g>
   <g id="patch_12">
    <path d="M 403.112817 265.38 
L 417.389363 265.38 
L 417.389363 71.160334 
L 403.112817 71.160334 
z
" clip-path="url(#p886b6e3a15)" style="fill: #1c5cab"/>
   </g>
   <g id="patch_13">
    <path d="M 79.260637 265.38 
L 93.537183 265.38 
L 93.537183 246.208529 
L 79.260637 246.208529 
z
" clip-path="url(#p886b6e3a15)" style="fill: #a3a29c"/>
   </g>
   <g id="patch_14">
    <path d="M 116.830496 265.38 
L 131.107042 265.38 
L 131.107042 229.666438 
L 116.830496 229.666438 
z
" clip-path="url(#p886b6e3a15)" style="fill: #a3a29c"/>
   </g>
   <g id="patch_15">
    <path d="M 154.400354 265.38 
L 168.6769 265.38 
L 168.6769 213.431137 
L 154.400354 213.431137 
z
" clip-path="url(#p886b6e3a15)" style="fill: #a3a29c"/>
   </g>
   <g id="patch_16">
    <path d="M 191.970212 265.38 
L 206.246759 265.38 
L 206.246759 200.635455 
L 191.970212 200.635455 
z
" clip-path="url(#p886b6e3a15)" style="fill: #a3a29c"/>
   </g>
   <g id="patch_17">
    <path d="M 229.540071 265.38 
L 243.816617 265.38 
L 243.816617 182.139358 
L 229.540071 182.139358 
z
" clip-path="url(#p886b6e3a15)" style="fill: #a3a29c"/>
   </g>
   <g id="patch_18">
    <path d="M 267.109929 265.38 
L 281.386475 265.38 
L 281.386475 166.001473 
L 267.109929 166.001473 
z
" clip-path="url(#p886b6e3a15)" style="fill: #a3a29c"/>
   </g>
   <g id="patch_19">
    <path d="M 304.679788 265.38 
L 318.956334 265.38 
L 318.956334 144.130091 
L 304.679788 144.130091 
z
" clip-path="url(#p886b6e3a15)" style="fill: #a3a29c"/>
   </g>
   <g id="patch_20">
    <path d="M 342.249646 265.38 
L 356.526192 265.38 
L 356.526192 118.730152 
L 342.249646 118.730152 
z
" clip-path="url(#p886b6e3a15)" style="fill: #a3a29c"/>
   </g>
   <g id="patch_21">
    <path d="M 379.819504 265.38 
L 394.096051 265.38 
L 394.096051 91.989882 
L 379.819504 91.989882 
z
" clip-path="url(#p886b6e3a15)" style="fill: #a3a29c"/>
   </g>
   <g id="patch_22">
    <path d="M 417.389363 265.38 
L 431.665909 265.38 
L 431.665909 22.922857 
L 417.389363 22.922857 
z
" clip-path="url(#p886b6e3a15)" style="fill: #a3a29c"/>
   </g>
   <g id="patch_23">
    <path d="M 46.65 265.38 
L 46.65 10.8 
" style="fill: none; stroke: #c3c2b7; stroke-width: 0.8; stroke-linejoin: miter; stroke-linecap: square"/>
   </g>
   <g id="patch_24">
    <path d="M 46.65 265.38 
L 450 265.38 
" style="fill: none; stroke: #c3c2b7; stroke-width: 0.8; stroke-linejoin: miter; stroke-linecap: square"/>
   </g>
   <g id="legend_1">
    <g id="patch_25">
     <path d="M 55.65 27.203125 
L 75.65 27.203125 
L 75.65 20.203125 
L 55.65 20.203125 
z
" style="fill: #1c5cab"/>
    </g>
    <g id="text_23">
     <text style="font-size: 10px; font-family: 'Segoe UI', 'Arial', 'DejaVu Sans'; text-anchor: start; fill: #52514e" x="83.65" y="27.203125" transform="rotate(-0 83.65 27.203125)">Expected loss</text>
    </g>
    <g id="patch_26">
     <path d="M 55.65 41.90625 
L 75.65 41.90625 
L 75.65 34.90625 
L 55.65 34.90625 
z
" style="fill: #a3a29c"/>
    </g>
    <g id="text_24">
     <text style="font-size: 10px; font-family: 'Segoe UI', 'Arial', 'DejaVu Sans'; text-anchor: start; fill: #52514e" x="83.65" y="41.90625" transform="rotate(-0 83.65 41.90625)">Realized loss</text>
    </g>
   </g>
  </g>
 </g>
 <defs>
  <clipPath id="p886b6e3a15">
   <rect x="46.65" y="10.8" width="403.35" height="254.58"/>
  </clipPath>
 </defs>
</svg>
